PathFileType	4	(X/Y/Z)	/Users/itak/Documents/Research/Walk-IL/dataset/trc/00154_00007.trc
DataRate	CameraRate	NumFrames	NumMarkers	Units	OrigDataRate	OrigDataStartFrame	OrigNumFrames
100.000000	100.000000	4	53	mm	100.000000	378	504
Frame#	Time	RPSI			LPSI			L3			STRN			T10			C7			CLAV			RBAK			LBAK			LSHO			LUPA			LAEL			LAOL			LWTS			LWPS			LFRA			LIFD			LHPS			LHTS			RSHO			RUPA			RAEL			RAOL			RWTS			RWPS			RFRA			RIFD			RHTS			RHPS			RBHD			LFHD			RFHD			LBHD			LHIP			RHIP			RASI			LASI			LKNE			LTHI			LANK			LTIP			LTOE			LMT1			LMT5			LHEE			RKNE			RTHI			RANK			RTIP			RTOE			RMT1			RMT5			RHEE			
		X1	Y1	Z1	X2	Y2	Z2	X3	Y3	Z3	X4	Y4	Z4	X5	Y5	Z5	X6	Y6	Z6	X7	Y7	Z7	X8	Y8	Z8	X9	Y9	Z9	X10	Y10	Z10	X11	Y11	Z11	X12	Y12	Z12	X13	Y13	Z13	X14	Y14	Z14	X15	Y15	Z15	X16	Y16	Z16	X17	Y17	Z17	X18	Y18	Z18	X19	Y19	Z19	X20	Y20	Z20	X21	Y21	Z21	X22	Y22	Z22	X23	Y23	Z23	X24	Y24	Z24	X25	Y25	Z25	X26	Y26	Z26	X27	Y27	Z27	X28	Y28	Z28	X29	Y29	Z29	X30	Y30	Z30	X31	Y31	Z31	X32	Y32	Z32	X33	Y33	Z33	X34	Y34	Z34	X35	Y35	Z35	X36	Y36	Z36	X37	Y37	Z37	X38	Y38	Z38	X39	Y39	Z39	X40	Y40	Z40	X41	Y41	Z41	X42	Y42	Z42	X43	Y43	Z43	X44	Y44	Z44	X45	Y45	Z45	X46	Y46	Z46	X47	Y47	Z47	X48	Y48	Z48	X49	Y49	Z49	X50	Y50	Z50	X51	Y51	Z51	X52	Y52	Z52	X53	Y53	Z53	

379	3.78	462.3432922363281	1112.448364257812	241.6459808349609	597.2791137695312	1119.808349609375	241.7273406982422	531.0751342773438	1151.76416015625	232.8345489501953	539.2428588867188	1361.632934570312	447.6234130859375	522.9396362304688	1300.920776367188	197.0260925292969	540.844970703125	1594.480102539062	214.9486694335938	545.3640747070312	1493.827026367188	403.4312133789062	446.9019470214844	1410.17919921875	173.3681793212891	641.84814453125	1572.594360351562	201.4341430664062	715.7420043945312	1560.979248046875	283.0875854492188	785.8416137695312	1430.647216796875	258.2730407714844	814.9214477539062	1213.327880859375	269.919189453125	751.0072631835938	1197.560668945312	210.4512329101562	791.3432006835938	960.0789794921875	385.5459594726562	808.9616088867188	930.5613403320312	303.0449523925781	824.3670043945312	1097.7548828125	289.7153015136719	778.1658935546875	768.7808837890625	412.337158203125	814.1380615234375	857.3838500976562	336.0829772949219	805.6485595703125	872.7835083007812	403.3208923339844	364.762939453125	1581.48046875	284.9644470214844	297.3125305175781	1509.252197265625	276.4621276855469	267.4075012207031	1214.8017578125	284.3177185058594	362.6350402832031	1210.514282226562	268.2466735839844	292.9619445800781	980.5980224609375	442.713623046875	250.3886260986328	960.5795288085938	372.3977661132812	252.6669464111328	1143.472900390625	314.3780822753906	309.3974914550781	786.6783447265625	475.9710388183594	288.4983825683594	873.7740478515625	477.9797973632812	249.6712036132812	862.728515625	415.6178588867188	467.3002014160156	1771.97802734375	267.4493713378906	612.8766479492188	1834.006591796875	421.5346069335938	485.0585021972656	1834.3583984375	434.5195007324219	601.533935546875	1776.213012695312	247.3882751464844	710.5376586914062	1041.490600585938	340.3523864746094	350.923828125	1021.750427246094	375.9931945800781	402.5954284667969	1100.924682617188	450.8453063964844	667.2807006835938	1106.880615234375	444.0671691894531	693.312744140625	548.23193359375	455.1656799316406	717.8478393554688	687.4039916992188	402.9893798828125	677.216796875	28.85052108764648	450.6479797363281	713.0574340820312	288.0419311523438	408.4669189453125	614.9765625	49.34052658081055	674.7108154296875	581.8922729492188	53.27882385253906	596.29150390625	697.6531982421875	32.69435501098633	575.0873413085938	617.4721069335938	33.24334716796875	380.3761901855469	381.4419250488281	526.55810546875	433.1425170898438	361.7870178222656	808.7815551757812	418.2310180664062	335.1931762695312	154.1285705566406	47.42723846435547	355.426025390625	420.2034606933594	344.2359619140625	419.7548828125	41.22703170776367	208.7527160644531	459.69873046875	66.73465728759766	150.5541534423828	340.4658203125	55.80117797851562	134.6792449951172	367.1747436523438	206.7520294189453	5.479260444641113	
380	3.79	464.9143676757812	1113.115844726562	247.0007934570312	599.8607788085938	1120.401611328125	247.2118835449219	533.7587890625	1152.451904296875	238.3486175537109	541.8643188476562	1362.4833984375	452.7836303710938	526.7416381835938	1301.5927734375	201.7231597900391	544.8134765625	1595.130004882812	220.0819854736328	548.2042236328125	1494.629516601562	408.5543518066406	450.9773864746094	1410.849243164062	178.1325225830078	645.8667602539062	1573.176025390625	207.0743255615234	719.1765747070312	1561.612426757812	289.1814575195312	789.7008056640625	1431.374877929688	265.4304809570312	819.3704833984375	1214.232177734375	279.0175170898438	756.1890869140625	1197.844360351562	218.9175262451172	795.4537353515625	961.5918579101562	395.8877868652344	814.1134643554688	931.6804809570312	313.7575988769531	828.9814453125	1098.805541992188	299.6778869628906	782.671142578125	770.3682250976562	423.5448303222656	819.2014770507812	858.7182006835938	347.2684936523438	809.8541259765625	874.4371948242188	414.3098449707031	368.3375549316406	1582.309814453125	289.0307006835938	300.9412536621094	1510.132934570312	280.0288696289062	270.8118591308594	1215.817260742188	286.6723022460938	366.2344665527344	1211.5	271.53662109375	294.6628723144531	981.191650390625	444.5826721191406	252.6018676757812	961.370849609375	373.7735595703125	255.5679016113281	1144.419677734375	316.2778930664062	310.4218139648438	787.1444702148438	477.2139892578125	289.7214965820312	874.1874389648438	479.4753112792969	251.3863830566406	863.3525390625	416.6704406738281	471.1520690917969	1772.857299804688	272.5662841796875	616.0209350585938	1834.470581054688	427.4376831054688	488.1219787597656	1834.962280273438	439.7845153808594	605.47607421875	1776.935668945312	253.1595916748047	712.8912963867188	1042.008056640625	345.6148986816406	353.0424499511719	1023.083984375	381.8672485351562	405.2781677246094	1101.987426757812	456.0830688476562	670.0763549804688	1107.49609375	449.5297241210938	694.56005859375	548.1143798828125	457.329345703125	719.2393798828125	687.567138671875	406.5265197753906	677.2303466796875	28.84875679016113	450.6703796386719	713.80224609375	288.1066284179688	409.27099609375	615.0399169921875	48.9954948425293	674.7802734375	581.9615478515625	53.16194915771484	596.3548583984375	697.8152465820312	32.60482025146484	575.1801147460938	617.4775390625	33.24610137939453	380.3928527832031	384.1137084960938	528.0418090820312	443.1884765625	364.6315307617188	810.1470336914062	425.3818969726562	337.4533386230469	155.6577758789062	57.52803421020508	358.0055847167969	421.682373046875	354.2538452148438	417.7151794433594	42.33140563964844	220.7708282470703	459.0358581542969	67.52037048339844	163.2248382568359	339.6447448730469	58.20022964477539	145.4905853271484	370.0079040527344	207.6579284667969	15.39530849456787	
381	3.8	467.3442077636719	1113.761474609375	252.2251586914062	602.2919311523438	1120.978149414062	252.5549621582031	536.3075561523438	1153.127075195312	243.7304077148438	544.4718017578125	1363.291137695312	457.8428955078125	530.3494873046875	1302.213256835938	206.3594055175781	548.635498046875	1595.742797851562	225.1145782470703	550.9961547851562	1495.394775390625	413.5699462890625	454.8482360839844	1411.490844726562	182.8682250976562	649.715576171875	1573.7138671875	212.5348205566406	722.5056762695312	1562.220947265625	295.0274963378906	793.4182739257812	1432.074462890625	272.2783203125	823.6721801757812	1215.121948242188	287.888671875	761.1526489257812	1198.091064453125	227.2658538818359	799.508544921875	963.1412353515625	406.1419372558594	819.1128540039062	932.8082885742188	324.3890075683594	833.4637451171875	1099.876953125	309.4389953613281	787.1300659179688	772.0109252929688	434.7500915527344	824.13623046875	860.079345703125	358.388671875	814.0051879882812	876.1339111328125	425.2302856445312	371.8163146972656	1583.130004882812	293.1145324707031	304.4686279296875	1511.022705078125	283.6339721679688	274.1886291503906	1216.82275390625	288.958984375	369.8018493652344	1212.495483398438	274.7913818359375	296.3216247558594	981.8128662109375	446.4577941894531	254.9089202880859	962.14501953125	375.1748046875	258.4451904296875	1145.352783203125	318.1217651367188	311.498779296875	787.7236328125	478.5642395019531	290.9624938964844	874.6875	481.0622253417969	253.2064666748047	863.9951782226562	417.7856750488281	474.9002075195312	1773.7421875	277.5640563964844	619.0921020507812	1834.879028320312	433.2211608886719	491.1204223632812	1835.490844726562	444.9701538085938	609.3163452148438	1777.688232421875	258.7927551269531	715.1431884765625	1042.491455078125	350.5176391601562	355.1341247558594	1024.224609375	387.5392761230469	407.8976135253906	1103.00341796875	461.2253723144531	672.8021240234375	1108.03369140625	454.8151245117188	695.7561645507812	548.0337524414062	459.4259338378906	720.52294921875	687.733154296875	409.9213256835938	677.2400512695312	28.8421630859375	450.6821594238281	714.520263671875	288.2337341308594	410.0466918945312	615.1124267578125	48.73031234741211	674.8322143554688	582.0485229492188	53.0845947265625	596.4139404296875	697.9674682617188	32.52500915527344	575.2584228515625	617.46337890625	33.24409484863281	380.4160461425781	386.7431030273438	529.5523681640625	452.993896484375	367.3882751464844	811.495361328125	432.3363647460938	339.5999450683594	156.7188720703125	67.93405914306641	360.5463256835938	423.1284484863281	364.0996398925781	415.9877014160156	43.44865798950195	233.2213134765625	458.4263916015625	68.01972961425781	176.1413726806641	338.8811645507812	60.41262435913086	156.9200286865234	372.9065551757812	207.9080963134766	25.52877235412598	
382	3.81	469.6550598144531	1114.346069335938	257.303466796875	604.6000366210938	1121.520874023438	257.7475891113281	538.7396850585938	1153.780029296875	248.9694213867188	547.0545654296875	1364.03271484375	462.8043518066406	533.7700805664062	1302.787353515625	210.9366607666016	552.31884765625	1596.320190429688	230.0664825439453	553.7391967773438	1496.101196289062	418.4938659667969	458.5193481445312	1412.11328125	187.5698699951172	653.405517578125	1574.2021484375	217.8457946777344	725.7394409179688	1562.785522460938	300.661865234375	796.9993896484375	1432.723022460938	278.8426818847656	827.830322265625	1215.971923828125	296.5071411132812	765.891845703125	1198.285400390625	235.4714965820312	803.5001220703125	964.7175903320312	416.2973327636719	823.9447631835938	933.9246826171875	334.9278259277344	837.8068237304688	1100.934204101562	318.9813232421875	791.541259765625	773.7119750976562	445.9806213378906	828.9273071289062	861.4493408203125	369.4428100585938	818.1004638671875	877.8712768554688	436.0828247070312	375.2000732421875	1583.933715820312	297.2444763183594	307.8935241699219	1511.911010742188	287.3009643554688	277.5193786621094	1217.8095703125	291.2067260742188	373.3080444335938	1213.487670898438	278.0155029296875	297.9413757324219	982.4396362304688	448.3461303710938	257.2897644042969	962.8929443359375	376.6089782714844	261.2980346679688	1146.260498046875	319.9432678222656	312.6394958496094	788.3800048828125	480.0405883789062	292.2197875976562	875.2571411132812	482.7375183105469	255.1171722412109	864.64453125	418.9681701660156	478.5473327636719	1774.596069335938	282.4429321289062	622.085205078125	1835.248657226562	438.8701782226562	494.0582275390625	1835.957153320312	450.0609741210938	613.0523071289062	1778.439331054688	264.282958984375	717.2933349609375	1042.920166015625	355.1029968261719	357.2075500488281	1025.179077148438	392.986328125	410.433837890625	1103.948364257812	466.2450866699219	675.4228515625	1108.483032226562	459.9400939941406	696.910400390625	547.9791870117188	461.4430541992188	721.7249755859375	687.889404296875	413.1564331054688	677.2444458007812	28.8338565826416	450.6856079101562	715.230224609375	288.4266052246094	410.8208618164062	615.1870727539062	48.52622985839844	674.8714599609375	582.144287109375	53.03875350952148	596.4691162109375	698.1041870117188	32.45605087280273	575.321044921875	617.429931640625	33.23696517944336	380.4435729980469	389.2911376953125	531.0725708007812	462.5525817871094	370.0336303710938	812.8018188476562	439.1273803710938	341.5787353515625	157.3669586181641	78.59767150878906	363.0177917480469	424.5211486816406	373.7974243164062	414.6211547851562	44.52693939208984	245.9483642578125	457.9437255859375	68.21805572509766	189.1574554443359	338.2699584960938	62.34877014160156	168.7997131347656	375.8363647460938	207.5846405029297	35.89021301269531	
